<!DOCTYPE svg>
<svg version="1.0" xmlns="http://www.w3.org/2000/svg"
    width="60pt" height="85pt" viewBox="0 0 60 85" preserveAspectRatio="xMidYMid meet">

    <g transform="translate(0,85) scale(0.1,-0.1)" fill="#e0001b" stroke="none">
        <path d="
            M 234 821
            c -106 -27 -182 -120 -184 -222 0 -48 40 -125 95 -179 78 -77 79 -69 -35 -178
            l -102 -97 29 -62 29 -63 114 115
            c 63 63 119 115 125 115 6 0 62 -52 125 -115 62 -63 114 -114 115 -113 8 13 45 113 45 122 0 6 -43 54 -94 105
            l -95 95 54 58
            c 81 87 108 138 107 202 -1 89 -43 151 -132 196 -48 24 -144 35 -196 21
            z
            m 119 -115
            c 43 -18 67 -46 74 -89 4 -30 0 -45 -25 -84 -17 -27 -45 -62 -63 -78
            l -31 -30 -50 55
            c -55 61 -68 86 -68 133 0 41 24 75 64 93 40 17 59 17 99 0
            z" />
    </g>

</svg>
